<svg width="30" height="31" viewBox="0 0 30 31" fill="none" xmlns="http://www.w3.org/2000/svg">
<path d="M0.544421 11.0111C0.544421 11.0111 1.27617 13.9414 3.98403 17.2337C6.1063 19.8385 10.0582 24.216 14.0099 27.0017C17.23 29.281 19.7913 30.0406 19.7913 30.0406C22.1331 31.0174 23.7066 30.4025 23.7066 30.4025C24.8409 30.0769 25.8654 29.3171 26.7802 28.5936C27.8048 27.7615 28.7928 26.8571 29.6343 25.8802C29.9271 25.5183 30.0733 25.1928 29.9636 24.7224C29.561 23.8179 26.707 21.2492 25.9384 20.6342C25.3897 20.2002 24.8774 19.7298 24.2919 19.3679C24.0356 19.2233 23.7796 19.0784 23.5234 19.006C22.9378 18.8975 22.5353 19.44 22.1696 19.8019C21.4743 20.4893 20.2668 22.1897 19.4985 22.4067C18.73 22.6601 16.5712 21.2489 15.8759 20.6702C13.5706 18.7889 11.1191 16.4374 10.0213 14.8816C9.50901 14.1581 8.0087 12.0598 8.26497 11.3C8.48448 10.5765 10.2043 9.34648 10.8995 8.65903C11.2655 8.29715 11.8143 7.93554 11.7045 7.32051C11.668 7.03106 11.5215 6.77795 11.3385 6.56065C10.9725 5.98174 10.497 5.4392 10.0577 4.93271C9.43568 4.17284 6.83763 1.35103 5.92285 0.953005C5.48384 0.844995 5.11812 0.989597 4.75208 1.27905C3.72753 2.11108 2.81276 3.08795 2.00776 4.10093C1.27601 5.00538 0.507471 6.01836 0.178218 7.13981C0.178218 7.17615 -0.407294 8.73171 0.544232 11.011L0.544421 11.0111Z" fill="#EE1C29"/>
</svg>
