<svg width="35" height="31" viewBox="0 0 35 31" fill="none" xmlns="http://www.w3.org/2000/svg">
<path d="M19.4224 28.0543H2.08576C1.53269 28.0543 1.0022 27.8265 0.610859 27.421C0.219761 27.0157 0 26.466 0 25.8928V2.19332C0.00202774 1.62152 0.222545 1.07364 0.613389 0.669928C1.00449 0.266224 1.53402 0.0395508 2.08576 0.0395508H10.9559V8.59453H16.3084V0.0395508H24.9495C25.5015 0.0395508 26.0307 0.266224 26.4218 0.669928C26.8127 1.07363 27.0332 1.62151 27.0352 2.19332V12.2397C26.3863 12.2363 25.7497 12.4225 25.1983 12.7768C24.6468 13.1311 24.2029 13.6391 23.9176 14.243L22.5367 17.1385L19.4517 17.6016C18.5917 17.7305 17.8095 18.1894 17.2595 18.8864C16.7097 19.5838 16.4319 20.4695 16.4814 21.3686C16.5305 22.2676 16.9034 23.115 17.5259 23.7432L19.7607 26.0026L19.4224 28.0543ZM34.2447 20.2672L29.8042 19.6082L27.8165 15.4398C27.67 15.1301 27.3664 14.9339 27.0336 14.9339C26.7008 14.9339 26.3969 15.1301 26.2504 15.4398L24.2665 19.6082L19.826 20.2672C19.4983 20.3171 19.2258 20.555 19.1234 20.8818C19.021 21.2083 19.1059 21.567 19.3429 21.8071L22.5551 25.053L21.7993 29.6469C21.7422 29.9868 21.8771 30.3306 22.1465 30.5328C22.4162 30.7353 22.7734 30.7613 23.0673 30.5996L27.0389 28.4345L31.0105 30.5996C31.3043 30.759 31.6602 30.7322 31.9283 30.5299C32.1968 30.328 32.3311 29.9857 32.2753 29.6469L31.5157 25.0643L34.7279 21.8184C34.9715 21.5792 35.061 21.2162 34.9578 20.8849C34.8546 20.554 34.5773 20.3137 34.2447 20.2672Z" fill="#EE1C29"/>
</svg>
