<svg width="35" height="35" viewBox="0 0 35 35" fill="none" xmlns="http://www.w3.org/2000/svg">
<g clip-path="url(#clip0_24_104)">
<path d="M5.76758 0C3.00146 0 0.738853 2.2734 0.738853 5.04464C0.738853 7.81567 3.00146 10.0913 5.76758 10.0913C8.53369 10.0913 10.803 7.8156 10.8033 5.04464C10.8033 2.2736 8.53389 0 5.76758 0ZM27.1107 0C24.3446 0 22.075 2.2734 22.0753 5.04464C22.0753 7.81567 24.3446 10.0913 27.1107 10.0913C29.8767 10.0913 32.1394 7.8156 32.1394 5.04464C32.1394 2.27367 29.8768 0 27.1107 0ZM16.4391 4.58128C13.673 4.58128 11.4034 6.85701 11.4034 9.62797C11.4034 12.3989 13.6728 14.6633 16.4391 14.6633C19.2052 14.6633 21.4745 12.399 21.4745 9.62797C21.4745 6.85694 19.2052 4.58128 16.4391 4.58128ZM5.76758 11.4214C1.41276 11.4214 -2.12122 14.9689 -2.12122 19.3308V29.2588C-2.11992 29.5655 -1.99767 29.8592 -1.78115 30.0761C-1.56463 30.293 -1.27144 30.4152 -0.965287 30.4165H6.22069V23.9145C6.22069 19.8347 8.64985 16.2966 12.1243 14.6567C10.6876 12.6967 8.37681 11.4215 5.76744 11.4215L5.76758 11.4214ZM27.1107 11.4214C24.5015 11.4214 22.1905 12.6966 20.7538 14.6565C24.228 16.2971 26.6574 19.8351 26.6574 23.9143V30.4164H33.8441C34.1502 30.4151 34.4434 30.2929 34.6599 30.076C34.8764 29.8591 34.9987 29.5654 35 29.2587V19.3307C35 14.9686 31.466 11.4212 27.1112 11.4212L27.1107 11.4214ZM16.4391 16.0026C12.3566 16.0026 8.98727 19.1221 8.58216 23.1064C8.55522 23.3721 8.5415 23.6419 8.5415 23.9146V33.84C8.54227 34.1487 8.6653 34.4445 8.8839 34.6619C9.10249 34.8796 9.39826 35.0013 9.70646 35H23.1727H23.1724C23.4806 35.0013 23.7767 34.8796 23.995 34.6619C24.2136 34.4445 24.3366 34.1487 24.3374 33.84V23.9146C24.3374 19.5526 20.7943 16.0025 16.4393 16.0025L16.4391 16.0026Z" fill="#EE1C29"/>
</g>
<defs>
<clipPath id="clip0_24_104">
<rect width="35" height="35" fill="white"/>
</clipPath>
</defs>
</svg>
